<mxfile host="65bd71144e" modified="2021-03-05T12:33:48.322Z" agent="5.0 (Windows NT 10.0; Win64; x64) AppleWebKit/537.36 (KHTML, like Gecko) Code/1.53.2 Chrome/87.0.4280.141 Electron/11.2.1 Safari/537.36" version="14.2.4" etag="SHYinRBF-CsfYApecbgM" type="embed">
    <diagram id="7LlDo9ET-2zPZ-Q3xOvs" name="Shape">
        <mxGraphModel dx="1685" dy="1438" grid="1" gridSize="10" guides="1" tooltips="1" connect="1" arrows="1" fold="1" page="1" pageScale="1" pageWidth="827" pageHeight="1169" math="0" shadow="0">
            <root>
                <mxCell id="0"/>
                <mxCell id="1" parent="0"/>
                <mxCell id="2" value="&lt;font style=&quot;font-size: 18px&quot;&gt;Company&lt;/font&gt;" style="whiteSpace=wrap;html=1;align=center;fillColor=#84AFDB;" vertex="1" parent="1">
                    <mxGeometry x="255" y="299.38" width="130" height="50" as="geometry"/>
                </mxCell>
                <mxCell id="4" value="&lt;span style=&quot;font-size: 18px&quot;&gt;Project&lt;br&gt;&lt;/span&gt;" style="whiteSpace=wrap;html=1;align=center;fillColor=#84AFDB;" vertex="1" parent="1">
                    <mxGeometry x="254" y="525" width="130" height="50" as="geometry"/>
                </mxCell>
                <mxCell id="5" value="&lt;span style=&quot;font-size: 18px&quot;&gt;Task&lt;br&gt;&lt;/span&gt;" style="whiteSpace=wrap;html=1;align=center;fillColor=#84AFDB;" vertex="1" parent="1">
                    <mxGeometry x="1310" y="760" width="170" height="50" as="geometry"/>
                </mxCell>
                <mxCell id="6" value="&lt;span style=&quot;font-size: 18px&quot;&gt;Employee&lt;br&gt;&lt;/span&gt;" style="whiteSpace=wrap;html=1;align=center;fillColor=#84AFDB;" vertex="1" parent="1">
                    <mxGeometry x="802.5" y="299.38" width="130" height="50" as="geometry"/>
                </mxCell>
                <mxCell id="7" value="&lt;span style=&quot;font-size: 18px&quot;&gt;Manager&lt;br&gt;&lt;/span&gt;" style="whiteSpace=wrap;html=1;align=center;fillColor=#84AFDB;" vertex="1" parent="1">
                    <mxGeometry x="253" y="810" width="130" height="50" as="geometry"/>
                </mxCell>
                <mxCell id="8" value="&lt;span style=&quot;font-size: 18px&quot;&gt;Employee_record&lt;br&gt;&lt;/span&gt;" style="whiteSpace=wrap;html=1;align=center;fillColor=#84AFDB;" vertex="1" parent="1">
                    <mxGeometry x="1311" y="510" width="171" height="50" as="geometry"/>
                </mxCell>
                <mxCell id="9" value="&lt;span style=&quot;font-size: 18px&quot;&gt;Employee_additional_info&lt;br&gt;&lt;/span&gt;" style="whiteSpace=wrap;html=1;align=center;fillColor=#84AFDB;" vertex="1" parent="1">
                    <mxGeometry x="752" y="640" width="231" height="50" as="geometry"/>
                </mxCell>
                <mxCell id="10" value="&lt;span style=&quot;font-size: 18px&quot;&gt;Job&lt;br&gt;&lt;/span&gt;" style="whiteSpace=wrap;html=1;align=center;fillColor=#84AFDB;" vertex="1" parent="1">
                    <mxGeometry x="1179.63" y="1010" width="150" height="50" as="geometry"/>
                </mxCell>
                <mxCell id="12" value="&lt;font style=&quot;font-size: 18px&quot;&gt;&lt;u&gt;&lt;b&gt;companyID&lt;/b&gt;&lt;/u&gt;&lt;/font&gt;" style="ellipse;whiteSpace=wrap;html=1;align=center;fillColor=#A3CC7A;" vertex="1" parent="1">
                    <mxGeometry x="400" y="190.63" width="120" height="50" as="geometry"/>
                </mxCell>
                <mxCell id="14" value="&lt;font style=&quot;font-size: 18px&quot;&gt;name&lt;/font&gt;" style="ellipse;whiteSpace=wrap;html=1;align=center;fillColor=#A3CC7A;" vertex="1" parent="1">
                    <mxGeometry x="260" y="194.38" width="120" height="50" as="geometry"/>
                </mxCell>
                <mxCell id="15" value="&lt;font style=&quot;font-size: 18px&quot;&gt;employeeNumber&lt;/font&gt;" style="ellipse;whiteSpace=wrap;html=1;align=center;fillColor=#A3CC7A;" vertex="1" parent="1">
                    <mxGeometry x="70" y="190.63" width="170" height="60" as="geometry"/>
                </mxCell>
                <mxCell id="27" value="&lt;font style=&quot;font-size: 18px&quot;&gt;&lt;u&gt;&lt;b&gt;projectID&lt;/b&gt;&lt;/u&gt;&lt;/font&gt;" style="ellipse;whiteSpace=wrap;html=1;align=center;fillColor=#A3CC7A;" vertex="1" parent="1">
                    <mxGeometry x="86" y="480" width="120" height="50" as="geometry"/>
                </mxCell>
                <mxCell id="29" value="&lt;span style=&quot;font-size: 18px&quot;&gt;projectName&lt;/span&gt;" style="ellipse;whiteSpace=wrap;html=1;align=center;fillColor=#A3CC7A;" vertex="1" parent="1">
                    <mxGeometry x="60" y="560" width="146" height="50" as="geometry"/>
                </mxCell>
                <mxCell id="33" value="&lt;span style=&quot;font-size: 18px&quot;&gt;&lt;u&gt;&lt;b&gt;employeeID&lt;/b&gt;&lt;/u&gt;&lt;/span&gt;" style="ellipse;whiteSpace=wrap;html=1;align=center;fillColor=#A3CC7A;" vertex="1" parent="1">
                    <mxGeometry x="580" y="124.38" width="140" height="50" as="geometry"/>
                </mxCell>
                <mxCell id="34" value="&lt;span style=&quot;font-size: 18px&quot;&gt;firstName&lt;/span&gt;" style="ellipse;whiteSpace=wrap;html=1;align=center;fillColor=#A3CC7A;" vertex="1" parent="1">
                    <mxGeometry x="670" y="38.13" width="140" height="50" as="geometry"/>
                </mxCell>
                <mxCell id="35" value="&lt;span style=&quot;font-size: 18px&quot;&gt;lastName&lt;/span&gt;" style="ellipse;whiteSpace=wrap;html=1;align=center;fillColor=#A3CC7A;" vertex="1" parent="1">
                    <mxGeometry x="840" y="38.13" width="140" height="50" as="geometry"/>
                </mxCell>
                <mxCell id="36" value="&lt;span style=&quot;font-size: 18px&quot;&gt;gender&lt;/span&gt;" style="ellipse;whiteSpace=wrap;html=1;align=center;fillColor=#A3CC7A;" vertex="1" parent="1">
                    <mxGeometry x="930" y="128.13" width="140" height="52.5" as="geometry"/>
                </mxCell>
                <mxCell id="37" value="&lt;span style=&quot;font-size: 18px&quot;&gt;yearsAtCompany&lt;/span&gt;" style="ellipse;whiteSpace=wrap;html=1;align=center;fillColor=#A3CC7A;" vertex="1" parent="1">
                    <mxGeometry x="1090" y="124.38" width="170" height="60" as="geometry"/>
                </mxCell>
                <mxCell id="41" value="" style="endArrow=none;html=1;rounded=0;exitX=0.5;exitY=1;exitDx=0;exitDy=0;entryX=0.5;entryY=0;entryDx=0;entryDy=0;" edge="1" parent="1" source="33" target="6">
                    <mxGeometry relative="1" as="geometry">
                        <mxPoint x="730" y="450" as="sourcePoint"/>
                        <mxPoint x="890" y="450" as="targetPoint"/>
                    </mxGeometry>
                </mxCell>
                <mxCell id="44" value="" style="endArrow=none;html=1;rounded=0;exitX=0.5;exitY=0;exitDx=0;exitDy=0;entryX=0.5;entryY=1;entryDx=0;entryDy=0;" edge="1" parent="1" source="6" target="36">
                    <mxGeometry relative="1" as="geometry">
                        <mxPoint x="980" y="440" as="sourcePoint"/>
                        <mxPoint x="1140" y="440" as="targetPoint"/>
                    </mxGeometry>
                </mxCell>
                <mxCell id="45" value="" style="endArrow=none;html=1;rounded=0;exitX=0.5;exitY=1;exitDx=0;exitDy=0;entryX=0.5;entryY=0;entryDx=0;entryDy=0;" edge="1" parent="1" source="37" target="6">
                    <mxGeometry relative="1" as="geometry">
                        <mxPoint x="940" y="420" as="sourcePoint"/>
                        <mxPoint x="930" y="480" as="targetPoint"/>
                    </mxGeometry>
                </mxCell>
                <mxCell id="47" value="&lt;span style=&quot;font-size: 18px&quot;&gt;&lt;u&gt;&lt;b&gt;employeeRecordID&lt;/b&gt;&lt;/u&gt;&lt;/span&gt;" style="ellipse;whiteSpace=wrap;html=1;align=center;fillColor=#A3CC7A;" vertex="1" parent="1">
                    <mxGeometry x="1070" y="304.38" width="206" height="60" as="geometry"/>
                </mxCell>
                <mxCell id="50" value="&lt;span style=&quot;text-align: left&quot;&gt;&lt;font style=&quot;font-size: 18px&quot;&gt;performanceRating&amp;nbsp;&lt;/font&gt;&lt;/span&gt;" style="ellipse;whiteSpace=wrap;html=1;align=center;fillColor=#A3CC7A;" vertex="1" parent="1">
                    <mxGeometry x="1290" y="230" width="180" height="60" as="geometry"/>
                </mxCell>
                <mxCell id="52" value="&lt;span style=&quot;text-align: left&quot;&gt;&lt;font style=&quot;font-size: 18px&quot;&gt;standardHours&amp;nbsp;&amp;nbsp;&lt;/font&gt;&lt;/span&gt;" style="ellipse;whiteSpace=wrap;html=1;align=center;fillColor=#A3CC7A;" vertex="1" parent="1">
                    <mxGeometry x="1514" y="440.63" width="140" height="60" as="geometry"/>
                </mxCell>
                <mxCell id="53" value="&lt;span style=&quot;text-align: left&quot;&gt;&lt;font style=&quot;font-size: 18px&quot;&gt;totalWorkingYears&lt;/font&gt;&lt;/span&gt;" style="ellipse;whiteSpace=wrap;html=1;align=center;fillColor=#A3CC7A;" vertex="1" parent="1">
                    <mxGeometry x="1460" y="184.38" width="170" height="60" as="geometry"/>
                </mxCell>
                <mxCell id="56" value="" style="endArrow=none;html=1;rounded=0;exitX=0.5;exitY=0;exitDx=0;exitDy=0;entryX=0.5;entryY=1;entryDx=0;entryDy=0;" edge="1" parent="1" source="8" target="47">
                    <mxGeometry relative="1" as="geometry">
                        <mxPoint x="1238" y="600.63" as="sourcePoint"/>
                        <mxPoint x="1408" y="610.63" as="targetPoint"/>
                    </mxGeometry>
                </mxCell>
                <mxCell id="57" value="" style="endArrow=none;html=1;rounded=0;exitX=0.5;exitY=0;exitDx=0;exitDy=0;entryX=0.5;entryY=1;entryDx=0;entryDy=0;" edge="1" parent="1" source="8" target="50">
                    <mxGeometry relative="1" as="geometry">
                        <mxPoint x="1228" y="680.63" as="sourcePoint"/>
                        <mxPoint x="1388" y="680.63" as="targetPoint"/>
                    </mxGeometry>
                </mxCell>
                <mxCell id="58" value="" style="endArrow=none;html=1;rounded=0;exitX=0.5;exitY=0;exitDx=0;exitDy=0;entryX=0.5;entryY=1;entryDx=0;entryDy=0;" edge="1" parent="1" source="8" target="71">
                    <mxGeometry relative="1" as="geometry">
                        <mxPoint x="1358" y="610.63" as="sourcePoint"/>
                        <mxPoint x="1505.5" y="450.63" as="targetPoint"/>
                    </mxGeometry>
                </mxCell>
                <mxCell id="59" value="" style="endArrow=none;html=1;rounded=0;exitX=0.5;exitY=0;exitDx=0;exitDy=0;entryX=0;entryY=0.5;entryDx=0;entryDy=0;" edge="1" parent="1" source="8" target="52">
                    <mxGeometry relative="1" as="geometry">
                        <mxPoint x="1228" y="630.63" as="sourcePoint"/>
                        <mxPoint x="1388" y="630.63" as="targetPoint"/>
                    </mxGeometry>
                </mxCell>
                <mxCell id="60" value="" style="endArrow=none;html=1;rounded=0;exitX=0.5;exitY=0;exitDx=0;exitDy=0;entryX=0.5;entryY=1;entryDx=0;entryDy=0;" edge="1" parent="1" source="8" target="53">
                    <mxGeometry relative="1" as="geometry">
                        <mxPoint x="1258" y="680.63" as="sourcePoint"/>
                        <mxPoint x="1418" y="680.63" as="targetPoint"/>
                    </mxGeometry>
                </mxCell>
                <mxCell id="61" value="" style="endArrow=none;html=1;rounded=0;exitX=0.5;exitY=0;exitDx=0;exitDy=0;entryX=0.5;entryY=1;entryDx=0;entryDy=0;" edge="1" parent="1" source="8" target="55">
                    <mxGeometry relative="1" as="geometry">
                        <mxPoint x="1228" y="750.63" as="sourcePoint"/>
                        <mxPoint x="1388" y="750.63" as="targetPoint"/>
                    </mxGeometry>
                </mxCell>
                <mxCell id="62" value="" style="endArrow=none;html=1;rounded=0;entryX=0.5;entryY=1;entryDx=0;entryDy=0;exitX=0.5;exitY=0;exitDx=0;exitDy=0;" edge="1" parent="1" source="8" target="54">
                    <mxGeometry relative="1" as="geometry">
                        <mxPoint x="1380" y="490" as="sourcePoint"/>
                        <mxPoint x="1458" y="630.63" as="targetPoint"/>
                    </mxGeometry>
                </mxCell>
                <mxCell id="63" value="&lt;font style=&quot;font-size: 18px&quot;&gt;&lt;u&gt;&lt;b&gt;managerID&lt;/b&gt;&lt;/u&gt;&lt;/font&gt;" style="ellipse;whiteSpace=wrap;html=1;align=center;fillColor=#A3CC7A;" vertex="1" parent="1">
                    <mxGeometry x="179" y="880" width="120" height="50" as="geometry"/>
                </mxCell>
                <mxCell id="64" value="&lt;font style=&quot;font-size: 18px&quot;&gt;name&lt;/font&gt;" style="ellipse;whiteSpace=wrap;html=1;align=center;fillColor=#A3CC7A;" vertex="1" parent="1">
                    <mxGeometry x="339" y="880" width="120" height="50" as="geometry"/>
                </mxCell>
                <mxCell id="69" value="" style="endArrow=none;html=1;rounded=0;exitX=0.5;exitY=0;exitDx=0;exitDy=0;entryX=0.5;entryY=1;entryDx=0;entryDy=0;" edge="1" parent="1" source="63" target="7">
                    <mxGeometry relative="1" as="geometry">
                        <mxPoint x="269" y="1300" as="sourcePoint"/>
                        <mxPoint x="429" y="1300" as="targetPoint"/>
                    </mxGeometry>
                </mxCell>
                <mxCell id="70" value="" style="endArrow=none;html=1;rounded=0;exitX=0.5;exitY=0;exitDx=0;exitDy=0;entryX=0.5;entryY=1;entryDx=0;entryDy=0;" edge="1" parent="1" source="64" target="7">
                    <mxGeometry relative="1" as="geometry">
                        <mxPoint x="479" y="1260" as="sourcePoint"/>
                        <mxPoint x="639" y="1260" as="targetPoint"/>
                    </mxGeometry>
                </mxCell>
                <mxCell id="71" value="&lt;font style=&quot;font-size: 18px&quot;&gt;spentTime&lt;/font&gt;" style="ellipse;whiteSpace=wrap;html=1;align=center;dashed=1;fillColor=#A3CC7A;" vertex="1" parent="1">
                    <mxGeometry x="1454.38" y="304.38" width="181.25" height="60" as="geometry"/>
                </mxCell>
                <mxCell id="73" value="&lt;font style=&quot;font-size: 18px&quot;&gt;name&lt;/font&gt;" style="ellipse;whiteSpace=wrap;html=1;align=center;fillColor=#A3CC7A;" vertex="1" parent="1">
                    <mxGeometry x="760" y="125.63" width="130" height="55" as="geometry"/>
                </mxCell>
                <mxCell id="74" value="" style="endArrow=none;html=1;rounded=0;entryX=0.5;entryY=0;entryDx=0;entryDy=0;" edge="1" parent="1" source="73" target="6">
                    <mxGeometry relative="1" as="geometry">
                        <mxPoint x="690" y="400" as="sourcePoint"/>
                        <mxPoint x="850" y="400" as="targetPoint"/>
                    </mxGeometry>
                </mxCell>
                <mxCell id="75" value="" style="endArrow=none;html=1;rounded=0;exitX=0.5;exitY=1;exitDx=0;exitDy=0;entryX=0.5;entryY=0;entryDx=0;entryDy=0;" edge="1" parent="1" source="34" target="73">
                    <mxGeometry relative="1" as="geometry">
                        <mxPoint x="680" y="208.13" as="sourcePoint"/>
                        <mxPoint x="820" y="188.13" as="targetPoint"/>
                    </mxGeometry>
                </mxCell>
                <mxCell id="76" value="" style="endArrow=none;html=1;rounded=0;exitX=0.5;exitY=1;exitDx=0;exitDy=0;entryX=0.5;entryY=0;entryDx=0;entryDy=0;" edge="1" parent="1" source="35" target="73">
                    <mxGeometry relative="1" as="geometry">
                        <mxPoint x="690" y="218.13" as="sourcePoint"/>
                        <mxPoint x="850" y="218.13" as="targetPoint"/>
                    </mxGeometry>
                </mxCell>
                <mxCell id="78" value="" style="endArrow=none;html=1;rounded=0;exitX=0.5;exitY=1;exitDx=0;exitDy=0;entryX=0.5;entryY=0;entryDx=0;entryDy=0;" edge="1" parent="1" source="15" target="2">
                    <mxGeometry relative="1" as="geometry">
                        <mxPoint x="210" y="288.13" as="sourcePoint"/>
                        <mxPoint x="370" y="288.13" as="targetPoint"/>
                    </mxGeometry>
                </mxCell>
                <mxCell id="79" value="" style="endArrow=none;html=1;rounded=0;exitX=0.5;exitY=1;exitDx=0;exitDy=0;entryX=0.5;entryY=0;entryDx=0;entryDy=0;" edge="1" parent="1" source="14" target="2">
                    <mxGeometry relative="1" as="geometry">
                        <mxPoint x="150" y="358.13" as="sourcePoint"/>
                        <mxPoint x="310" y="358.13" as="targetPoint"/>
                    </mxGeometry>
                </mxCell>
                <mxCell id="80" value="" style="endArrow=none;html=1;rounded=0;exitX=0.5;exitY=1;exitDx=0;exitDy=0;entryX=0.5;entryY=0;entryDx=0;entryDy=0;" edge="1" parent="1" source="12" target="2">
                    <mxGeometry relative="1" as="geometry">
                        <mxPoint x="220" y="398.13" as="sourcePoint"/>
                        <mxPoint x="380" y="398.13" as="targetPoint"/>
                    </mxGeometry>
                </mxCell>
                <mxCell id="81" value="&lt;span style=&quot;font-size: 18px&quot;&gt;&lt;u&gt;&lt;b&gt;taskID&lt;/b&gt;&lt;/u&gt;&lt;/span&gt;" style="ellipse;whiteSpace=wrap;html=1;align=center;fillColor=#A3CC7A;" vertex="1" parent="1">
                    <mxGeometry x="1494" y="795.63" width="146" height="50" as="geometry"/>
                </mxCell>
                <mxCell id="82" value="&lt;span style=&quot;font-size: 18px&quot;&gt;taskDescription&lt;/span&gt;" style="ellipse;whiteSpace=wrap;html=1;align=center;fillColor=#A3CC7A;" vertex="1" parent="1">
                    <mxGeometry x="1487" y="715" width="160" height="60" as="geometry"/>
                </mxCell>
                <mxCell id="84" value="" style="endArrow=none;html=1;rounded=0;exitX=1;exitY=0.5;exitDx=0;exitDy=0;entryX=0;entryY=0.5;entryDx=0;entryDy=0;" edge="1" parent="1" source="5" target="81">
                    <mxGeometry relative="1" as="geometry">
                        <mxPoint x="1410" y="920" as="sourcePoint"/>
                        <mxPoint x="1570" y="920" as="targetPoint"/>
                    </mxGeometry>
                </mxCell>
                <mxCell id="85" value="" style="endArrow=none;html=1;rounded=0;exitX=1;exitY=0.5;exitDx=0;exitDy=0;entryX=0;entryY=0.5;entryDx=0;entryDy=0;" edge="1" parent="1" source="5" target="82">
                    <mxGeometry relative="1" as="geometry">
                        <mxPoint x="1440" y="960" as="sourcePoint"/>
                        <mxPoint x="1600" y="960" as="targetPoint"/>
                    </mxGeometry>
                </mxCell>
                <mxCell id="90" value="&lt;span style=&quot;font-size: 18px&quot;&gt;&lt;u&gt;&lt;b&gt;jobID&lt;/b&gt;&lt;/u&gt;&lt;/span&gt;" style="ellipse;whiteSpace=wrap;html=1;align=center;fillColor=#A3CC7A;" vertex="1" parent="1">
                    <mxGeometry x="1009.63" y="1100" width="146" height="50" as="geometry"/>
                </mxCell>
                <mxCell id="91" value="&lt;span style=&quot;font-size: 18px&quot;&gt;jobLevel&lt;/span&gt;" style="ellipse;whiteSpace=wrap;html=1;align=center;fillColor=#A3CC7A;" vertex="1" parent="1">
                    <mxGeometry x="1329.63" y="1100" width="146" height="50" as="geometry"/>
                </mxCell>
                <mxCell id="92" value="&lt;span style=&quot;font-size: 18px&quot;&gt;jobRole&lt;/span&gt;" style="ellipse;whiteSpace=wrap;html=1;align=center;fillColor=#A3CC7A;" vertex="1" parent="1">
                    <mxGeometry x="1166.13" y="1100" width="146" height="50" as="geometry"/>
                </mxCell>
                <mxCell id="93" value="" style="endArrow=none;html=1;rounded=0;exitX=0.5;exitY=1;exitDx=0;exitDy=0;entryX=0.5;entryY=0;entryDx=0;entryDy=0;" edge="1" parent="1" source="10" target="90">
                    <mxGeometry relative="1" as="geometry">
                        <mxPoint x="1159.63" y="1230" as="sourcePoint"/>
                        <mxPoint x="1319.63" y="1230" as="targetPoint"/>
                    </mxGeometry>
                </mxCell>
                <mxCell id="94" value="" style="endArrow=none;html=1;rounded=0;exitX=0.5;exitY=1;exitDx=0;exitDy=0;entryX=0.5;entryY=0;entryDx=0;entryDy=0;" edge="1" parent="1" source="10" target="92">
                    <mxGeometry relative="1" as="geometry">
                        <mxPoint x="1159.63" y="1260" as="sourcePoint"/>
                        <mxPoint x="1269.63" y="1150" as="targetPoint"/>
                    </mxGeometry>
                </mxCell>
                <mxCell id="95" value="" style="endArrow=none;html=1;rounded=0;exitX=0.5;exitY=1;exitDx=0;exitDy=0;entryX=0.5;entryY=0;entryDx=0;entryDy=0;" edge="1" parent="1" source="10" target="91">
                    <mxGeometry relative="1" as="geometry">
                        <mxPoint x="1209.63" y="1260" as="sourcePoint"/>
                        <mxPoint x="1369.63" y="1260" as="targetPoint"/>
                    </mxGeometry>
                </mxCell>
                <mxCell id="97" value="&lt;span style=&quot;font-size: 18px&quot;&gt;&lt;u&gt;&lt;b&gt;employeeAdditionalInfoID&lt;/b&gt;&lt;/u&gt;&lt;/span&gt;" style="ellipse;whiteSpace=wrap;html=1;align=center;fillColor=#A3CC7A;" vertex="1" parent="1">
                    <mxGeometry x="550" y="740" width="263" height="70" as="geometry"/>
                </mxCell>
                <mxCell id="98" value="&lt;span style=&quot;text-align: left&quot;&gt;&lt;font style=&quot;font-size: 18px&quot;&gt;maritalStatus&amp;nbsp;&amp;nbsp;&lt;/font&gt;&lt;/span&gt;" style="ellipse;whiteSpace=wrap;html=1;align=center;fillColor=#A3CC7A;" vertex="1" parent="1">
                    <mxGeometry x="904" y="920" width="146" height="50" as="geometry"/>
                </mxCell>
                <mxCell id="99" value="&lt;span style=&quot;text-align: left&quot;&gt;&lt;font style=&quot;font-size: 18px&quot;&gt;monthlyIncome&amp;nbsp;&amp;nbsp;&lt;/font&gt;&lt;/span&gt;" style="ellipse;whiteSpace=wrap;html=1;align=center;fillColor=#A3CC7A;" vertex="1" parent="1">
                    <mxGeometry x="710" y="870" width="160" height="60" as="geometry"/>
                </mxCell>
                <mxCell id="102" value="" style="endArrow=none;html=1;rounded=0;exitX=0.5;exitY=1;exitDx=0;exitDy=0;entryX=0.5;entryY=0;entryDx=0;entryDy=0;" edge="1" parent="1" source="9" target="97">
                    <mxGeometry relative="1" as="geometry">
                        <mxPoint x="590" y="940" as="sourcePoint"/>
                        <mxPoint x="750" y="940" as="targetPoint"/>
                    </mxGeometry>
                </mxCell>
                <mxCell id="103" value="" style="endArrow=none;html=1;rounded=0;exitX=0.5;exitY=1;exitDx=0;exitDy=0;entryX=0.5;entryY=0;entryDx=0;entryDy=0;" edge="1" parent="1" source="9" target="96">
                    <mxGeometry relative="1" as="geometry">
                        <mxPoint x="780" y="780" as="sourcePoint"/>
                        <mxPoint x="940" y="780" as="targetPoint"/>
                    </mxGeometry>
                </mxCell>
                <mxCell id="104" value="" style="endArrow=none;html=1;rounded=0;entryX=0.5;entryY=0;entryDx=0;entryDy=0;exitX=0.5;exitY=1;exitDx=0;exitDy=0;" edge="1" parent="1" source="9" target="101">
                    <mxGeometry relative="1" as="geometry">
                        <mxPoint x="850" y="720" as="sourcePoint"/>
                        <mxPoint x="1120" y="730" as="targetPoint"/>
                    </mxGeometry>
                </mxCell>
                <mxCell id="105" value="" style="endArrow=none;html=1;rounded=0;entryX=0.5;entryY=0;entryDx=0;entryDy=0;exitX=0.5;exitY=1;exitDx=0;exitDy=0;" edge="1" parent="1" source="9" target="99">
                    <mxGeometry relative="1" as="geometry">
                        <mxPoint x="850" y="720" as="sourcePoint"/>
                        <mxPoint x="940" y="820" as="targetPoint"/>
                    </mxGeometry>
                </mxCell>
                <mxCell id="106" value="" style="endArrow=none;html=1;rounded=0;entryX=0.5;entryY=0;entryDx=0;entryDy=0;exitX=0.5;exitY=1;exitDx=0;exitDy=0;" edge="1" parent="1" source="9" target="100">
                    <mxGeometry relative="1" as="geometry">
                        <mxPoint x="800" y="770" as="sourcePoint"/>
                        <mxPoint x="770" y="930" as="targetPoint"/>
                    </mxGeometry>
                </mxCell>
                <mxCell id="107" value="" style="endArrow=none;html=1;rounded=0;entryX=0.5;entryY=0;entryDx=0;entryDy=0;exitX=0.5;exitY=1;exitDx=0;exitDy=0;" edge="1" parent="1" source="9" target="98">
                    <mxGeometry relative="1" as="geometry">
                        <mxPoint x="710" y="860" as="sourcePoint"/>
                        <mxPoint x="870" y="860" as="targetPoint"/>
                    </mxGeometry>
                </mxCell>
                <mxCell id="120" value="&lt;font style=&quot;font-size: 18px&quot;&gt;has&lt;/font&gt;" style="shape=rhombus;perimeter=rhombusPerimeter;whiteSpace=wrap;html=1;align=center;fillColor=#E6B88A;" vertex="1" parent="1">
                    <mxGeometry x="530" y="284.38" width="160" height="80" as="geometry"/>
                </mxCell>
                <mxCell id="121" value="" style="endArrow=none;html=1;rounded=0;exitX=1;exitY=0.5;exitDx=0;exitDy=0;entryX=0;entryY=0.5;entryDx=0;entryDy=0;" edge="1" parent="1" source="2" target="120">
                    <mxGeometry relative="1" as="geometry">
                        <mxPoint x="418" y="490" as="sourcePoint"/>
                        <mxPoint x="520" y="324.3800000000001" as="targetPoint"/>
                    </mxGeometry>
                </mxCell>
                <mxCell id="122" value="" style="endArrow=none;html=1;rounded=0;exitX=1;exitY=0.5;exitDx=0;exitDy=0;entryX=0;entryY=0.5;entryDx=0;entryDy=0;" edge="1" parent="1" source="120" target="6">
                    <mxGeometry relative="1" as="geometry">
                        <mxPoint x="580" y="470" as="sourcePoint"/>
                        <mxPoint x="790" y="350" as="targetPoint"/>
                    </mxGeometry>
                </mxCell>
                <mxCell id="129" value="&lt;font style=&quot;font-size: 18px ; font-weight: normal&quot;&gt;M&lt;/font&gt;" style="text;strokeColor=none;fillColor=none;html=1;fontSize=24;fontStyle=1;verticalAlign=middle;align=center;" vertex="1" parent="1">
                    <mxGeometry x="710" y="290" width="20" height="30" as="geometry"/>
                </mxCell>
                <mxCell id="135" value="&lt;font style=&quot;font-size: 18px ; font-weight: normal&quot;&gt;M&lt;/font&gt;" style="text;strokeColor=none;fillColor=none;html=1;fontSize=24;fontStyle=1;verticalAlign=middle;align=center;" vertex="1" parent="1">
                    <mxGeometry x="490" y="290" width="20" height="30" as="geometry"/>
                </mxCell>
                <mxCell id="136" value="&lt;font style=&quot;font-size: 18px&quot;&gt;works&lt;/font&gt;" style="shape=rhombus;perimeter=rhombusPerimeter;whiteSpace=wrap;html=1;align=center;fillColor=#E6B88A;" vertex="1" parent="1">
                    <mxGeometry x="530" y="460" width="160" height="80" as="geometry"/>
                </mxCell>
                <mxCell id="138" value="" style="endArrow=none;html=1;rounded=0;exitX=1;exitY=0.5;exitDx=0;exitDy=0;entryX=0;entryY=0.5;entryDx=0;entryDy=0;" edge="1" parent="1" source="27" target="4">
                    <mxGeometry relative="1" as="geometry">
                        <mxPoint x="120" y="705" as="sourcePoint"/>
                        <mxPoint x="280" y="705" as="targetPoint"/>
                    </mxGeometry>
                </mxCell>
                <mxCell id="139" value="" style="endArrow=none;html=1;rounded=0;exitX=1;exitY=0.5;exitDx=0;exitDy=0;entryX=0;entryY=0.5;entryDx=0;entryDy=0;" edge="1" parent="1" source="29" target="4">
                    <mxGeometry relative="1" as="geometry">
                        <mxPoint x="110" y="735" as="sourcePoint"/>
                        <mxPoint x="270" y="735" as="targetPoint"/>
                    </mxGeometry>
                </mxCell>
                <mxCell id="140" value="" style="endArrow=none;html=1;rounded=0;exitX=1;exitY=0.5;exitDx=0;exitDy=0;entryX=0;entryY=0.5;entryDx=0;entryDy=0;" edge="1" parent="1" source="4" target="136">
                    <mxGeometry relative="1" as="geometry">
                        <mxPoint x="316" y="680" as="sourcePoint"/>
                        <mxPoint x="522" y="484.37" as="targetPoint"/>
                    </mxGeometry>
                </mxCell>
                <mxCell id="141" value="" style="endArrow=none;html=1;rounded=0;exitX=1;exitY=0.5;exitDx=0;exitDy=0;entryX=0.5;entryY=1;entryDx=0;entryDy=0;" edge="1" parent="1" source="136" target="6">
                    <mxGeometry relative="1" as="geometry">
                        <mxPoint x="520" y="650" as="sourcePoint"/>
                        <mxPoint x="680" y="650" as="targetPoint"/>
                    </mxGeometry>
                </mxCell>
                <mxCell id="142" value="&lt;font style=&quot;font-size: 18px ; font-weight: normal&quot;&gt;M&lt;/font&gt;" style="text;strokeColor=none;fillColor=none;html=1;fontSize=24;fontStyle=1;verticalAlign=middle;align=center;" vertex="1" parent="1">
                    <mxGeometry x="490" y="470.63" width="20" height="30" as="geometry"/>
                </mxCell>
                <mxCell id="143" value="&lt;font style=&quot;font-size: 18px ; font-weight: normal&quot;&gt;M&lt;/font&gt;" style="text;strokeColor=none;fillColor=none;html=1;fontSize=24;fontStyle=1;verticalAlign=middle;align=center;" vertex="1" parent="1">
                    <mxGeometry x="680" y="450" width="20" height="30" as="geometry"/>
                </mxCell>
                <mxCell id="144" value="&lt;font style=&quot;font-size: 18px&quot;&gt;manages&lt;/font&gt;" style="shape=rhombus;perimeter=rhombusPerimeter;whiteSpace=wrap;html=1;align=center;fillColor=#E6B88A;" vertex="1" parent="1">
                    <mxGeometry x="252.5" y="660" width="131" height="70" as="geometry"/>
                </mxCell>
                <mxCell id="145" value="" style="endArrow=none;html=1;rounded=0;entryX=0.5;entryY=0;entryDx=0;entryDy=0;" edge="1" parent="1" source="144" target="7">
                    <mxGeometry relative="1" as="geometry">
                        <mxPoint x="156" y="760" as="sourcePoint"/>
                        <mxPoint x="316" y="760" as="targetPoint"/>
                    </mxGeometry>
                </mxCell>
                <mxCell id="146" value="" style="endArrow=none;html=1;rounded=0;exitX=0.5;exitY=0;exitDx=0;exitDy=0;entryX=0.5;entryY=1;entryDx=0;entryDy=0;" edge="1" parent="1" source="144" target="4">
                    <mxGeometry relative="1" as="geometry">
                        <mxPoint x="176" y="750" as="sourcePoint"/>
                        <mxPoint x="336" y="750" as="targetPoint"/>
                    </mxGeometry>
                </mxCell>
                <mxCell id="147" value="&lt;font style=&quot;font-size: 18px ; font-weight: normal&quot;&gt;M&lt;/font&gt;" style="text;strokeColor=none;fillColor=none;html=1;fontSize=24;fontStyle=1;verticalAlign=middle;align=center;" vertex="1" parent="1">
                    <mxGeometry x="296" y="625" width="20" height="30" as="geometry"/>
                </mxCell>
                <mxCell id="148" value="&lt;font style=&quot;font-size: 18px ; font-weight: normal&quot;&gt;1&lt;/font&gt;" style="text;strokeColor=none;fillColor=none;html=1;fontSize=24;fontStyle=1;verticalAlign=middle;align=center;" vertex="1" parent="1">
                    <mxGeometry x="296" y="730" width="20" height="30" as="geometry"/>
                </mxCell>
                <mxCell id="150" value="&lt;div&gt;&lt;span style=&quot;font-size: 18px&quot;&gt;record&lt;/span&gt;&lt;/div&gt;" style="shape=rhombus;perimeter=rhombusPerimeter;whiteSpace=wrap;html=1;align=center;fillColor=#E6B88A;" vertex="1" parent="1">
                    <mxGeometry x="1050" y="435.63" width="160" height="85" as="geometry"/>
                </mxCell>
                <mxCell id="151" value="" style="endArrow=none;html=1;rounded=0;exitX=0.5;exitY=1;exitDx=0;exitDy=0;entryX=0;entryY=0.5;entryDx=0;entryDy=0;" edge="1" parent="1" source="6" target="150">
                    <mxGeometry relative="1" as="geometry">
                        <mxPoint x="1060" y="700" as="sourcePoint"/>
                        <mxPoint x="1220" y="700" as="targetPoint"/>
                    </mxGeometry>
                </mxCell>
                <mxCell id="152" value="" style="endArrow=none;html=1;rounded=0;exitX=1;exitY=0.5;exitDx=0;exitDy=0;entryX=0;entryY=0.5;entryDx=0;entryDy=0;" edge="1" parent="1" source="150" target="8">
                    <mxGeometry relative="1" as="geometry">
                        <mxPoint x="980" y="670" as="sourcePoint"/>
                        <mxPoint x="1140" y="670" as="targetPoint"/>
                    </mxGeometry>
                </mxCell>
                <mxCell id="154" value="&lt;font style=&quot;font-size: 18px ; font-weight: normal&quot;&gt;1&lt;/font&gt;" style="text;strokeColor=none;fillColor=none;html=1;fontSize=24;fontStyle=1;verticalAlign=middle;align=center;" vertex="1" parent="1">
                    <mxGeometry x="1030" y="425.63" width="20" height="30" as="geometry"/>
                </mxCell>
                <mxCell id="156" value="&lt;font style=&quot;font-size: 18px ; font-weight: normal&quot;&gt;M&lt;/font&gt;" style="text;strokeColor=none;fillColor=none;html=1;fontSize=24;fontStyle=1;verticalAlign=middle;align=center;" vertex="1" parent="1">
                    <mxGeometry x="1203" y="455.63" width="73" height="30" as="geometry"/>
                </mxCell>
                <mxCell id="159" style="edgeStyle=none;rounded=0;orthogonalLoop=1;jettySize=auto;html=1;exitX=1;exitY=1;exitDx=0;exitDy=0;" edge="1" parent="1" source="53" target="53">
                    <mxGeometry relative="1" as="geometry"/>
                </mxCell>
                <mxCell id="160" style="edgeStyle=none;rounded=0;orthogonalLoop=1;jettySize=auto;html=1;exitX=0.5;exitY=1;exitDx=0;exitDy=0;" edge="1" parent="1" source="54" target="54">
                    <mxGeometry relative="1" as="geometry"/>
                </mxCell>
                <mxCell id="55" value="&lt;span style=&quot;text-align: left&quot;&gt;&lt;font style=&quot;font-size: 18px&quot;&gt;outTime&amp;nbsp;&amp;nbsp;&lt;/font&gt;&lt;/span&gt;" style="ellipse;whiteSpace=wrap;html=1;align=center;fillColor=#A3CC7A;" vertex="1" parent="1">
                    <mxGeometry x="1375.5" y="380" width="140" height="50" as="geometry"/>
                </mxCell>
                <mxCell id="101" value="&lt;span style=&quot;text-align: left&quot;&gt;&lt;font style=&quot;font-size: 18px&quot;&gt;trainingTimesLastYear&amp;nbsp;&amp;nbsp;&lt;/font&gt;&lt;/span&gt;" style="ellipse;whiteSpace=wrap;html=1;align=center;fillColor=#A3CC7A;" vertex="1" parent="1">
                    <mxGeometry x="961" y="740" width="210" height="70" as="geometry"/>
                </mxCell>
                <mxCell id="100" value="&lt;span style=&quot;text-align: left&quot;&gt;&lt;font style=&quot;font-size: 18px&quot;&gt;environmentSatisfaction&amp;nbsp;&lt;/font&gt;&lt;/span&gt;" style="ellipse;whiteSpace=wrap;html=1;align=center;fillColor=#A3CC7A;" vertex="1" parent="1">
                    <mxGeometry x="946" y="840" width="240" height="65" as="geometry"/>
                </mxCell>
                <mxCell id="96" value="&lt;span style=&quot;font-size: 18px&quot;&gt;education&lt;/span&gt;" style="ellipse;whiteSpace=wrap;html=1;align=center;fillColor=#A3CC7A;" vertex="1" parent="1">
                    <mxGeometry x="802.5" y="790" width="146" height="50" as="geometry"/>
                </mxCell>
                <mxCell id="164" value="&lt;span style=&quot;font-size: 18px&quot;&gt;has&lt;/span&gt;" style="shape=rhombus;perimeter=rhombusPerimeter;whiteSpace=wrap;html=1;align=center;fillColor=#E6B88A;" vertex="1" parent="1">
                    <mxGeometry x="777" y="485.63" width="181" height="90" as="geometry"/>
                </mxCell>
                <mxCell id="165" value="" style="endArrow=none;html=1;rounded=0;exitX=0.5;exitY=0;exitDx=0;exitDy=0;entryX=0.5;entryY=1;entryDx=0;entryDy=0;" edge="1" parent="1" source="9" target="164">
                    <mxGeometry relative="1" as="geometry">
                        <mxPoint x="540" y="640" as="sourcePoint"/>
                        <mxPoint x="700" y="640" as="targetPoint"/>
                    </mxGeometry>
                </mxCell>
                <mxCell id="166" value="" style="endArrow=none;html=1;rounded=0;exitX=0.5;exitY=1;exitDx=0;exitDy=0;entryX=0.5;entryY=0;entryDx=0;entryDy=0;" edge="1" parent="1" source="6" target="164">
                    <mxGeometry relative="1" as="geometry">
                        <mxPoint x="640" y="640" as="sourcePoint"/>
                        <mxPoint x="800" y="640" as="targetPoint"/>
                    </mxGeometry>
                </mxCell>
                <mxCell id="167" value="&lt;font style=&quot;font-size: 18px ; font-weight: normal&quot;&gt;1&lt;/font&gt;" style="text;strokeColor=none;fillColor=none;html=1;fontSize=24;fontStyle=1;verticalAlign=middle;align=center;" vertex="1" parent="1">
                    <mxGeometry x="840" y="440.63" width="20" height="30" as="geometry"/>
                </mxCell>
                <mxCell id="168" value="&lt;font style=&quot;font-size: 18px ; font-weight: normal&quot;&gt;1&lt;/font&gt;" style="text;strokeColor=none;fillColor=none;html=1;fontSize=24;fontStyle=1;verticalAlign=middle;align=center;" vertex="1" parent="1">
                    <mxGeometry x="840" y="585" width="20" height="30" as="geometry"/>
                </mxCell>
                <mxCell id="170" value="" style="endArrow=none;html=1;rounded=0;exitX=0.5;exitY=1;exitDx=0;exitDy=0;entryX=0.5;entryY=0;entryDx=0;entryDy=0;" edge="1" parent="1" source="171" target="5">
                    <mxGeometry relative="1" as="geometry">
                        <mxPoint x="1260" y="1050" as="sourcePoint"/>
                        <mxPoint x="1420" y="1050" as="targetPoint"/>
                    </mxGeometry>
                </mxCell>
                <mxCell id="171" value="&lt;span style=&quot;font-size: 18px&quot;&gt;set&lt;/span&gt;" style="shape=rhombus;perimeter=rhombusPerimeter;whiteSpace=wrap;html=1;align=center;fillColor=#E6B88A;" vertex="1" parent="1">
                    <mxGeometry x="1320" y="640" width="150" height="70" as="geometry"/>
                </mxCell>
                <mxCell id="172" value="" style="endArrow=none;html=1;rounded=0;exitX=0.5;exitY=0;exitDx=0;exitDy=0;entryX=0.5;entryY=1;entryDx=0;entryDy=0;" edge="1" parent="1" source="171" target="8">
                    <mxGeometry relative="1" as="geometry">
                        <mxPoint x="1390" y="1070" as="sourcePoint"/>
                        <mxPoint x="1550" y="1070" as="targetPoint"/>
                    </mxGeometry>
                </mxCell>
                <mxCell id="173" value="&lt;font style=&quot;font-size: 18px ; font-weight: normal&quot;&gt;1&lt;/font&gt;" style="text;strokeColor=none;fillColor=none;html=1;fontSize=24;fontStyle=1;verticalAlign=middle;align=center;" vertex="1" parent="1">
                    <mxGeometry x="1370" y="710" width="20" height="30" as="geometry"/>
                </mxCell>
                <mxCell id="174" value="&lt;font style=&quot;font-size: 18px ; font-weight: normal&quot;&gt;M&lt;/font&gt;" style="text;strokeColor=none;fillColor=none;html=1;fontSize=24;fontStyle=1;verticalAlign=middle;align=center;" vertex="1" parent="1">
                    <mxGeometry x="1343.5" y="600" width="73" height="30" as="geometry"/>
                </mxCell>
                <mxCell id="175" value="&lt;font style=&quot;font-size: 18px&quot;&gt;distribute&lt;/font&gt;" style="shape=rhombus;perimeter=rhombusPerimeter;whiteSpace=wrap;html=1;align=center;fillColor=#E6B88A;" vertex="1" parent="1">
                    <mxGeometry x="1343.5" y="905" width="190" height="70" as="geometry"/>
                </mxCell>
                <mxCell id="176" value="" style="endArrow=none;html=1;rounded=0;exitX=0.5;exitY=0;exitDx=0;exitDy=0;entryX=0.5;entryY=1;entryDx=0;entryDy=0;" edge="1" parent="1" source="10" target="175">
                    <mxGeometry relative="1" as="geometry">
                        <mxPoint x="1410" y="1010" as="sourcePoint"/>
                        <mxPoint x="1570" y="1010" as="targetPoint"/>
                    </mxGeometry>
                </mxCell>
                <mxCell id="177" value="" style="endArrow=none;html=1;rounded=0;exitX=0.5;exitY=0;exitDx=0;exitDy=0;entryX=0.5;entryY=1;entryDx=0;entryDy=0;" edge="1" parent="1" source="175" target="5">
                    <mxGeometry relative="1" as="geometry">
                        <mxPoint x="1400" y="1010" as="sourcePoint"/>
                        <mxPoint x="1560" y="1010" as="targetPoint"/>
                    </mxGeometry>
                </mxCell>
                <mxCell id="178" value="&lt;span style=&quot;font-size: 18px ; font-weight: 400&quot;&gt;M&lt;/span&gt;" style="text;strokeColor=none;fillColor=none;html=1;fontSize=24;fontStyle=1;verticalAlign=middle;align=center;" vertex="1" parent="1">
                    <mxGeometry x="1440" y="860" width="20" height="30" as="geometry"/>
                </mxCell>
                <mxCell id="179" value="&lt;font style=&quot;font-size: 18px ; font-weight: normal&quot;&gt;1&lt;/font&gt;" style="text;strokeColor=none;fillColor=none;html=1;fontSize=24;fontStyle=1;verticalAlign=middle;align=center;" vertex="1" parent="1">
                    <mxGeometry x="1360" y="960" width="20" height="30" as="geometry"/>
                </mxCell>
                <mxCell id="54" value="&lt;span style=&quot;text-align: left&quot;&gt;&lt;font style=&quot;font-size: 18px&quot;&gt;inTime&amp;nbsp;&amp;nbsp;&lt;/font&gt;&lt;/span&gt;" style="ellipse;whiteSpace=wrap;html=1;align=center;fillColor=#A3CC7A;" vertex="1" parent="1">
                    <mxGeometry x="1260" y="349.38" width="132.5" height="50" as="geometry"/>
                </mxCell>
            </root>
        </mxGraphModel>
    </diagram>
</mxfile>